<svg width="258" height="196" viewBox="0 0 258 196" fill="none" xmlns="http://www.w3.org/2000/svg">
<path d="M15.8677 24.3133C15.8677 10.8854 26.7532 0 40.181 0H71.9165V16.2089H40.181C35.7051 16.2089 32.0766 19.8373 32.0766 24.3133V87.9548C32.0766 92.4307 28.4481 96.0592 23.9722 96.0592L23.9722 99.9408C28.4481 99.9408 32.0766 103.569 32.0766 108.045V171.687C32.0766 176.163 35.7051 179.791 40.181 179.791H71.9165V196H40.181C26.7532 196 15.8677 185.115 15.8677 171.687V106.104H0V89.8956H15.8677V24.3133Z" fill="white"/>
<path d="M15.8677 24.3133C15.8677 10.8854 26.7532 0 40.181 0H71.9165V16.2089H40.181C35.7051 16.2089 32.0766 19.8373 32.0766 24.3133V87.9548C32.0766 92.4307 28.4481 96.0592 23.9722 96.0592L23.9722 99.9408C28.4481 99.9408 32.0766 103.569 32.0766 108.045V171.687C32.0766 176.163 35.7051 179.791 40.181 179.791H71.9165V196H40.181C26.7532 196 15.8677 185.115 15.8677 171.687V106.104H0V89.8956H15.8677V24.3133Z" fill="#1E5ACA"/>
<path d="M15.8677 24.3133C15.8677 10.8854 26.7532 0 40.181 0H71.9165V16.2089H40.181C35.7051 16.2089 32.0766 19.8373 32.0766 24.3133V87.9548C32.0766 92.4307 28.4481 96.0592 23.9722 96.0592L23.9722 99.9408C28.4481 99.9408 32.0766 103.569 32.0766 108.045V171.687C32.0766 176.163 35.7051 179.791 40.181 179.791H71.9165V196H40.181C26.7532 196 15.8677 185.115 15.8677 171.687V106.104H0V89.8956H15.8677V24.3133Z" fill="#2A2D34"/>
<path d="M67.0471 91.9208L49.0553 41.9327H63.7405L75.7999 77.9164L87.6648 41.9327H102.058L84.0664 91.9208H67.0471Z" fill="white"/>
<path d="M67.0471 91.9208L49.0553 41.9327H63.7405L75.7999 77.9164L87.6648 41.9327H102.058L84.0664 91.9208H67.0471Z" fill="#1E5ACA"/>
<path d="M67.0471 91.9208L49.0553 41.9327H63.7405L75.7999 77.9164L87.6648 41.9327H102.058L84.0664 91.9208H67.0471Z" fill="#2A2D34"/>
<path d="M104.683 91.9208V23.8436H118.396V91.9208H104.683Z" fill="white"/>
<path d="M104.683 91.9208V23.8436H118.396V91.9208H104.683Z" fill="#1E5ACA"/>
<path d="M104.683 91.9208V23.8436H118.396V91.9208H104.683Z" fill="#2A2D34"/>
<path d="M185.818 41.3492C196.126 41.3492 204.296 47.1844 204.296 63.2311V91.9208H190.583V64.0092C190.583 56.5207 187.86 52.6305 181.927 52.6305C175.995 52.6305 172.008 57.0069 172.008 64.5927V91.9208H158.295V64.0092C158.295 56.5207 155.572 52.6305 149.542 52.6305C143.61 52.6305 139.72 57.2014 139.72 64.6899V91.9208H126.007V41.9327H137.969L139.233 48.1569C142.248 44.2668 146.625 41.4464 153.919 41.3492C160.046 41.2519 165.783 43.4887 168.896 49.8102C172.397 44.4613 178.232 41.3492 185.818 41.3492Z" fill="white"/>
<path d="M185.818 41.3492C196.126 41.3492 204.296 47.1844 204.296 63.2311V91.9208H190.583V64.0092C190.583 56.5207 187.86 52.6305 181.927 52.6305C175.995 52.6305 172.008 57.0069 172.008 64.5927V91.9208H158.295V64.0092C158.295 56.5207 155.572 52.6305 149.542 52.6305C143.61 52.6305 139.72 57.2014 139.72 64.6899V91.9208H126.007V41.9327H137.969L139.233 48.1569C142.248 44.2668 146.625 41.4464 153.919 41.3492C160.046 41.2519 165.783 43.4887 168.896 49.8102C172.397 44.4613 178.232 41.3492 185.818 41.3492Z" fill="#1E5ACA"/>
<path d="M185.818 41.3492C196.126 41.3492 204.296 47.1844 204.296 63.2311V91.9208H190.583V64.0092C190.583 56.5207 187.86 52.6305 181.927 52.6305C175.995 52.6305 172.008 57.0069 172.008 64.5927V91.9208H158.295V64.0092C158.295 56.5207 155.572 52.6305 149.542 52.6305C143.61 52.6305 139.72 57.2014 139.72 64.6899V91.9208H126.007V41.9327H137.969L139.233 48.1569C142.248 44.2668 146.625 41.4464 153.919 41.3492C160.046 41.2519 165.783 43.4887 168.896 49.8102C172.397 44.4613 178.232 41.3492 185.818 41.3492Z" fill="#2A2D34"/>
<path d="M88.1974 110.82H90.5315V123.269H85.0853C76.916 123.269 73.8039 128.715 73.8039 136.301V160.809H60.0912V110.82H72.5396L73.8039 118.309C76.527 113.835 80.4172 110.82 88.1974 110.82Z" fill="white"/>
<path d="M88.1974 110.82H90.5315V123.269H85.0853C76.916 123.269 73.8039 128.715 73.8039 136.301V160.809H60.0912V110.82H72.5396L73.8039 118.309C76.527 113.835 80.4172 110.82 88.1974 110.82Z" fill="#1E5ACA"/>
<path d="M88.1974 110.82H90.5315V123.269H85.0853C76.916 123.269 73.8039 128.715 73.8039 136.301V160.809H60.0912V110.82H72.5396L73.8039 118.309C76.527 113.835 80.4172 110.82 88.1974 110.82Z" fill="#2A2D34"/>
<path d="M128.069 135.814V110.82H141.782V160.809H129.625L128.361 154.779C125.151 158.669 120.775 161.392 113.675 161.392C103.367 161.392 93.8358 156.238 93.8358 138.538V110.82H107.549V136.69C107.549 145.637 110.466 150.013 117.274 150.013C124.082 150.013 128.069 145.054 128.069 135.814Z" fill="white"/>
<path d="M128.069 135.814V110.82H141.782V160.809H129.625L128.361 154.779C125.151 158.669 120.775 161.392 113.675 161.392C103.367 161.392 93.8358 156.238 93.8358 138.538V110.82H107.549V136.69C107.549 145.637 110.466 150.013 117.274 150.013C124.082 150.013 128.069 145.054 128.069 135.814Z" fill="#1E5ACA"/>
<path d="M128.069 135.814V110.82H141.782V160.809H129.625L128.361 154.779C125.151 158.669 120.775 161.392 113.675 161.392C103.367 161.392 93.8358 156.238 93.8358 138.538V110.82H107.549V136.69C107.549 145.637 110.466 150.013 117.274 150.013C124.082 150.013 128.069 145.054 128.069 135.814Z" fill="#2A2D34"/>
<path d="M178.06 110.237C188.855 110.237 198.094 115.975 198.094 133.091V160.809H184.382V134.453C184.382 125.992 181.172 121.518 174.267 121.518C167.168 121.518 163.083 126.575 163.083 135.231V160.809H149.37V110.82H161.333L162.597 117.045C165.806 113.154 170.377 110.237 178.06 110.237Z" fill="white"/>
<path d="M178.06 110.237C188.855 110.237 198.094 115.975 198.094 133.091V160.809H184.382V134.453C184.382 125.992 181.172 121.518 174.267 121.518C167.168 121.518 163.083 126.575 163.083 135.231V160.809H149.37V110.82H161.333L162.597 117.045C165.806 113.154 170.377 110.237 178.06 110.237Z" fill="#1E5ACA"/>
<path d="M178.06 110.237C188.855 110.237 198.094 115.975 198.094 133.091V160.809H184.382V134.453C184.382 125.992 181.172 121.518 174.267 121.518C167.168 121.518 163.083 126.575 163.083 135.231V160.809H149.37V110.82H161.333L162.597 117.045C165.806 113.154 170.377 110.237 178.06 110.237Z" fill="#2A2D34"/>
<path d="M241.427 24.3133C241.427 10.8854 230.542 0 217.114 0H185.379V16.2089H217.114C221.59 16.2089 225.218 19.8373 225.218 24.3133V87.9548C225.218 92.4307 228.847 96.0592 233.323 96.0592V99.9408C228.847 99.9408 225.218 103.569 225.218 108.045V171.687C225.218 176.163 221.59 179.791 217.114 179.791H185.379V196H217.114C230.542 196 241.427 185.115 241.427 171.687V106.104H257.295V89.8956H241.427V24.3133Z" fill="white"/>
<path d="M241.427 24.3133C241.427 10.8854 230.542 0 217.114 0H185.379V16.2089H217.114C221.59 16.2089 225.218 19.8373 225.218 24.3133V87.9548C225.218 92.4307 228.847 96.0592 233.323 96.0592V99.9408C228.847 99.9408 225.218 103.569 225.218 108.045V171.687C225.218 176.163 221.59 179.791 217.114 179.791H185.379V196H217.114C230.542 196 241.427 185.115 241.427 171.687V106.104H257.295V89.8956H241.427V24.3133Z" fill="#1E5ACA"/>
<path d="M241.427 24.3133C241.427 10.8854 230.542 0 217.114 0H185.379V16.2089H217.114C221.59 16.2089 225.218 19.8373 225.218 24.3133V87.9548C225.218 92.4307 228.847 96.0592 233.323 96.0592V99.9408C228.847 99.9408 225.218 103.569 225.218 108.045V171.687C225.218 176.163 221.59 179.791 217.114 179.791H185.379V196H217.114C230.542 196 241.427 185.115 241.427 171.687V106.104H257.295V89.8956H241.427V24.3133Z" fill="#2A2D34"/>
</svg>
